<?xml version="1.0" encoding="utf-8"?>
<!-- Generator: Adobe Illustrator 23.0.1, SVG Export Plug-In . SVG Version: 6.00 Build 0)  -->
<svg version="1.1" id="Layer_1" xmlns="http://www.w3.org/2000/svg" xmlns:xlink="http://www.w3.org/1999/xlink" x="0px" y="0px"
	 viewBox="0 0 247.49 29.1" style="enable-background:new 0 0 247.49 29.1;" xml:space="preserve">
<style type="text/css">
	.st0{fill:#FFFFFF;}
</style>
<g>
	<path class="st0" d="M22.71,1.2H2.76C2.12,1.2,1.6,1.72,1.6,2.36v25.35c0,0.64,0.52,1.16,1.16,1.16h19.96
		c0.64,0,1.16-0.52,1.16-1.16V2.36C23.87,1.72,23.35,1.2,22.71,1.2z M6.66,27.43c-1.14,0-2.07-0.93-2.07-2.07
		c0-1.14,0.93-2.07,2.07-2.07s2.07,0.93,2.07,2.07C8.73,26.5,7.81,27.43,6.66,27.43z M6.69,22.29c-1.14,0-2.07-0.93-2.07-2.07
		c0-1.14,0.93-2.07,2.07-2.07s2.07,0.93,2.07,2.07C8.76,21.36,7.83,22.29,6.69,22.29z M6.71,17.16c-1.14,0-2.07-0.93-2.07-2.07
		c0-1.14,0.93-2.07,2.07-2.07s2.07,0.93,2.07,2.07C8.78,16.23,7.85,17.16,6.71,17.16z M12.69,27.43c-1.14,0-2.07-0.93-2.07-2.07
		c0-1.14,0.93-2.07,2.07-2.07s2.07,0.93,2.07,2.07C14.76,26.5,13.83,27.43,12.69,27.43z M12.71,22.29c-1.14,0-2.07-0.93-2.07-2.07
		c0-1.14,0.93-2.07,2.07-2.07s2.07,0.93,2.07,2.07C14.78,21.36,13.85,22.29,12.71,22.29z M12.73,17.16c-1.14,0-2.07-0.93-2.07-2.07
		c0-1.14,0.93-2.07,2.07-2.07s2.07,0.93,2.07,2.07C14.81,16.23,13.88,17.16,12.73,17.16z M18.76,27.43c-1.14,0-2.07-0.93-2.07-2.07
		c0-1.14,0.93-2.07,2.07-2.07c1.14,0,2.07,0.93,2.07,2.07C20.83,26.5,19.9,27.43,18.76,27.43z M18.78,22.29
		c-1.14,0-2.07-0.93-2.07-2.07c0-1.14,0.93-2.07,2.07-2.07c1.14,0,2.07,0.93,2.07,2.07C20.86,21.36,19.93,22.29,18.78,22.29z
		 M18.81,17.16c-1.14,0-2.07-0.93-2.07-2.07c0-1.14,0.93-2.07,2.07-2.07c1.14,0,2.07,0.93,2.07,2.07
		C20.88,16.23,19.95,17.16,18.81,17.16z M21.36,10.02c0,0.64-0.52,1.16-1.16,1.16H5.26c-0.64,0-1.16-0.52-1.16-1.16V5.59
		c0-0.64,0.52-1.16,1.16-1.16h14.94c0.64,0,1.16,0.52,1.16,1.16V10.02z"/>
</g>
<g>
	<path class="st0" d="M55.08,22.92c0,0.17-0.11,0.4-0.34,0.68c-1.98,2.35-4.6,3.53-7.88,3.53c-3.35,0-6.07-1.14-8.15-3.43
		c-2.03-2.21-3.05-5.01-3.05-8.38c0-3.27,0.99-6.04,2.98-8.31c2.07-2.38,4.71-3.58,7.91-3.58c3.48,0,6.21,1.07,8.19,3.21
		c0.21,0.24,0.32,0.45,0.32,0.63c0,0.2-0.37,0.96-1.12,2.27c-0.75,1.31-1.22,2.05-1.41,2.21c-0.09,0.09-0.19,0.13-0.32,0.13
		c-0.05,0-0.32-0.21-0.81-0.64c-0.58-0.52-1.15-0.92-1.71-1.21c-0.85-0.43-1.73-0.64-2.64-0.64c-1.58,0-2.84,0.59-3.79,1.77
		c-0.87,1.1-1.31,2.45-1.31,4.06c0,1.63,0.44,3,1.31,4.11c0.95,1.2,2.21,1.8,3.79,1.8c0.93,0,1.82-0.2,2.66-0.61
		c0.55-0.27,1.11-0.64,1.68-1.13c0.47-0.41,0.74-0.61,0.79-0.61c0.11,0,0.21,0.06,0.32,0.18c0.17,0.19,0.64,0.86,1.4,2.01
		C54.69,22.15,55.08,22.81,55.08,22.92z"/>
	<path class="st0" d="M78.41,26.16c0,0.19-0.13,0.33-0.4,0.4c-0.32,0.09-1.32,0.13-3,0.13c-1.54,0-2.52-0.04-2.96-0.13
		c-0.37-0.08-0.6-0.32-0.69-0.73c-0.37-1.55-0.65-2.37-0.85-2.48c-0.17-0.08-1.61-0.11-4.32-0.11c-1.83,0-2.8,0.05-2.92,0.15
		c-0.18,0.17-0.39,0.75-0.61,1.72c-0.2,0.89-0.45,1.38-0.74,1.45c-0.37,0.09-1.59,0.13-3.67,0.13c-1.64,0-2.47-0.16-2.47-0.47
		c0-0.28,1.21-3.71,3.64-10.3c2.63-7.12,4.06-11.04,4.29-11.75c0.13-0.41,0.28-0.61,0.45-0.61c0.29,0,0.74,0.03,1.35,0.08
		c0.61,0.05,1.06,0.08,1.36,0.08c0.29,0,0.72-0.02,1.28-0.06c0.56-0.04,0.99-0.06,1.26-0.06c0.2,0,0.39,0.18,0.56,0.53
		c0.53,1.13,2.06,5,4.61,11.6C77.13,22.4,78.41,25.87,78.41,26.16z M66.98,11.48c-0.23,0.47-0.61,1.5-1.14,3.08
		c-0.58,1.68-0.87,2.66-0.87,2.95c0,0.19,0.32,0.3,0.97,0.32c0.33,0.02,0.88,0.03,1.64,0.03c0.71,0,1.1-0.09,1.18-0.26
		c0.02-0.05,0.03-0.13,0.03-0.23c0-0.35-0.25-1.33-0.74-2.93C67.56,12.9,67.21,11.91,66.98,11.48z"/>
	<path class="st0" d="M95.19,26.84c-0.92,0-2.13-0.02-3.61-0.06c-1.93-0.04-3.14-0.07-3.61-0.08l-4.82-0.06
		c-0.48,0.01-1.18-0.01-2.08-0.06c-0.31-0.05-0.47-0.22-0.47-0.5c0-1.17,0.02-2.92,0.06-5.26c0.04-2.34,0.06-4.09,0.06-5.26
		c0-1.25-0.04-3.11-0.11-5.6c-0.08-2.49-0.11-4.35-0.11-5.6c0-0.24,0.16-0.35,0.48-0.35s0.8,0.02,1.44,0.05s1.11,0.05,1.43,0.05
		c0.35,0,0.88-0.02,1.58-0.06S86.65,3.97,87,3.97c0.16,0,0.24,0.1,0.23,0.31l-0.02,0.21c-0.13,2.02-0.27,5.05-0.44,9.1l-0.02,4.25
		c0,1.38,0.01,2.38,0.02,3.01c0.01,0.13,0.02,0.26,0.03,0.39s0.09,0.21,0.24,0.24c0.01,0,0.15,0,0.42,0c0.97,0,2.41-0.05,4.34-0.15
		c1.93-0.1,3.38-0.15,4.34-0.15c0.29,0,0.44,0.12,0.44,0.37c0,1.84-0.13,3.42-0.4,4.75c-0.05,0.28-0.17,0.45-0.34,0.5
		C95.79,26.83,95.57,26.84,95.19,26.84z"/>
	<path class="st0" d="M117.58,22.92c0,0.17-0.11,0.4-0.34,0.68c-1.98,2.35-4.6,3.53-7.88,3.53c-3.35,0-6.07-1.14-8.15-3.43
		c-2.03-2.21-3.05-5.01-3.05-8.38c0-3.27,0.99-6.04,2.98-8.31c2.07-2.38,4.71-3.58,7.91-3.58c3.48,0,6.21,1.07,8.19,3.21
		c0.21,0.24,0.32,0.45,0.32,0.63c0,0.2-0.37,0.96-1.12,2.27c-0.75,1.31-1.22,2.05-1.41,2.21c-0.09,0.09-0.19,0.13-0.32,0.13
		c-0.05,0-0.32-0.21-0.81-0.64c-0.58-0.52-1.15-0.92-1.71-1.21c-0.85-0.43-1.73-0.64-2.64-0.64c-1.58,0-2.84,0.59-3.79,1.77
		c-0.87,1.1-1.31,2.45-1.31,4.06c0,1.63,0.44,3,1.31,4.11c0.95,1.2,2.21,1.8,3.79,1.8c0.93,0,1.82-0.2,2.66-0.61
		c0.55-0.27,1.11-0.64,1.68-1.13c0.47-0.41,0.74-0.61,0.79-0.61c0.11,0,0.21,0.06,0.32,0.18c0.17,0.19,0.64,0.86,1.4,2.01
		C117.18,22.15,117.58,22.81,117.58,22.92z"/>
	<path class="st0" d="M138.89,18.65c0,2.74-0.33,4.61-0.98,5.61c-1.2,1.83-4.21,2.74-9.01,2.74c-2.17,0-3.84-0.17-5.01-0.5
		c-1.87-0.54-3.08-1.56-3.64-3.08c-0.28-0.74-0.42-2.06-0.42-3.96c0-0.44,0.02-1.1,0.05-1.97s0.05-1.52,0.05-1.95
		c0-1.25-0.06-3.12-0.18-5.61s-0.18-4.36-0.18-5.59c0-0.26,0.11-0.39,0.34-0.39c0.66,0,1.65,0.03,2.97,0.08s2.32,0.08,2.97,0.08
		c0.27,0,0.4,0.12,0.4,0.35c0,1.42-0.05,3.54-0.14,6.37c-0.09,2.83-0.14,4.96-0.14,6.37c0,1.69,0.18,2.83,0.53,3.42
		c0.47,0.81,1.46,1.21,2.96,1.21c2.2,0,3.3-1.07,3.3-3.21c0-1.56-0.04-3.89-0.11-7.01s-0.11-5.45-0.11-7.01c0-0.33,0.13-0.5,0.4-0.5
		c0.63,0,1.59-0.03,2.87-0.08s2.23-0.08,2.87-0.08c0.31,0,0.47,0.13,0.47,0.39c0,1.24-0.05,3.1-0.15,5.59
		c-0.1,2.49-0.15,4.36-0.15,5.61c0,0.34,0.01,0.86,0.02,1.55C138.88,17.79,138.89,18.31,138.89,18.65z"/>
	<path class="st0" d="M157.2,26.84c-0.92,0-2.13-0.02-3.61-0.06c-1.93-0.04-3.14-0.07-3.61-0.08l-4.82-0.06
		c-0.48,0.01-1.18-0.01-2.08-0.06c-0.31-0.05-0.47-0.22-0.47-0.5c0-1.17,0.02-2.92,0.06-5.26c0.04-2.34,0.06-4.09,0.06-5.26
		c0-1.25-0.04-3.11-0.11-5.6c-0.08-2.49-0.11-4.35-0.11-5.6c0-0.24,0.16-0.35,0.48-0.35s0.8,0.02,1.44,0.05s1.11,0.05,1.43,0.05
		c0.35,0,0.88-0.02,1.58-0.06s1.22-0.06,1.58-0.06c0.16,0,0.24,0.1,0.23,0.31l-0.02,0.21c-0.13,2.02-0.27,5.05-0.44,9.1l-0.02,4.25
		c0,1.38,0.01,2.38,0.02,3.01c0.01,0.13,0.02,0.26,0.03,0.39s0.09,0.21,0.24,0.24c0.01,0,0.15,0,0.42,0c0.97,0,2.41-0.05,4.34-0.15
		c1.93-0.1,3.38-0.15,4.34-0.15c0.29,0,0.44,0.12,0.44,0.37c0,1.84-0.13,3.42-0.4,4.75c-0.05,0.28-0.17,0.45-0.34,0.5
		C157.81,26.83,157.58,26.84,157.2,26.84z"/>
	<path class="st0" d="M182.02,26.16c0,0.19-0.13,0.33-0.4,0.4c-0.32,0.09-1.32,0.13-3,0.13c-1.54,0-2.52-0.04-2.96-0.13
		c-0.37-0.08-0.6-0.32-0.69-0.73c-0.37-1.55-0.65-2.37-0.85-2.48c-0.17-0.08-1.61-0.11-4.32-0.11c-1.83,0-2.8,0.05-2.92,0.15
		c-0.18,0.17-0.39,0.75-0.61,1.72c-0.2,0.89-0.45,1.38-0.74,1.45c-0.37,0.09-1.59,0.13-3.67,0.13c-1.64,0-2.47-0.16-2.47-0.47
		c0-0.28,1.21-3.71,3.64-10.3c2.63-7.12,4.06-11.04,4.29-11.75c0.13-0.41,0.28-0.61,0.45-0.61c0.29,0,0.74,0.03,1.35,0.08
		c0.61,0.05,1.06,0.08,1.36,0.08c0.29,0,0.72-0.02,1.28-0.06c0.56-0.04,0.99-0.06,1.26-0.06c0.2,0,0.39,0.18,0.56,0.53
		c0.53,1.13,2.06,5,4.61,11.6C180.74,22.4,182.02,25.87,182.02,26.16z M170.6,11.48c-0.23,0.47-0.61,1.5-1.14,3.08
		c-0.58,1.68-0.87,2.66-0.87,2.95c0,0.19,0.32,0.3,0.97,0.32c0.33,0.02,0.88,0.03,1.64,0.03c0.71,0,1.1-0.09,1.18-0.26
		c0.02-0.05,0.03-0.13,0.03-0.23c0-0.35-0.25-1.33-0.74-2.93C171.18,12.9,170.82,11.91,170.6,11.48z"/>
	<path class="st0" d="M199.69,8.89c0,0.21-0.12,0.32-0.35,0.32c-0.41,0-2.02-0.08-4.85-0.24c-0.06,2.72-0.1,4.61-0.1,5.69
		c0,1.27,0.05,3.17,0.15,5.72s0.15,4.45,0.15,5.72c0,0.2-0.05,0.33-0.15,0.39c-0.03,0.02-0.18,0.05-0.45,0.08
		c-0.64,0.09-1.59,0.13-2.84,0.13c-1.39,0-2.36-0.04-2.92-0.13c-0.3-0.05-0.45-0.22-0.45-0.5c0-1.27,0.05-3.17,0.16-5.7
		s0.16-4.44,0.16-5.7c0-0.84-0.04-2.71-0.13-5.61c-2.15,0.21-3.86,0.32-5.14,0.32c-0.17,0-0.26-0.05-0.26-0.16
		c0-0.14,0.08-0.55,0.23-1.24c0.17-0.75,0.27-1.21,0.29-1.37c0.03-0.5,0.07-1.01,0.11-1.51c0.08-0.81,0.2-1.21,0.39-1.21
		c0.02,0,0.1,0.01,0.23,0.02c1.74,0.23,4.31,0.34,7.72,0.34c0.97,0,2.75-0.1,5.35-0.31c1.4-0.11,2.1-0.16,2.11-0.16
		c0.21,0,0.34,0.01,0.37,0.04s0.05,0.13,0.06,0.31c0,0.29-0.01,0.69-0.03,1.21c-0.02,0.57-0.03,0.97-0.03,1.21
		c0,0.27,0.03,0.66,0.1,1.18C199.65,8.24,199.69,8.63,199.69,8.89z"/>
	<path class="st0" d="M224.12,15.29c0,3.35-1.07,6.16-3.21,8.43c-2.18,2.3-4.94,3.45-8.28,3.45c-3.32,0-6.07-1.16-8.27-3.48
		c-2.15-2.27-3.22-5.06-3.22-8.4c0-3.34,1.07-6.15,3.22-8.43c2.19-2.33,4.95-3.5,8.27-3.5c3.3,0,6.05,1.17,8.25,3.5
		C223.04,9.16,224.12,11.97,224.12,15.29z M218.02,15.25c0-1.61-0.49-2.98-1.47-4.11c-1.02-1.18-2.33-1.77-3.92-1.77
		c-1.51,0-2.8,0.61-3.85,1.84c-1.02,1.18-1.53,2.54-1.53,4.08c0,1.64,0.48,3.01,1.43,4.11c1.01,1.15,2.33,1.72,3.95,1.72
		c1.51,0,2.8-0.61,3.87-1.82C217.51,18.14,218.02,16.79,218.02,15.25z"/>
	<path class="st0" d="M246.06,26.4c0,0.08-0.11,0.13-0.32,0.16c-0.41,0.06-1.43,0.1-3.08,0.1c-1.41,0-2.36-0.03-2.87-0.1
		c-0.24-0.03-0.37-0.06-0.4-0.08c-0.06-0.03-0.14-0.14-0.23-0.32c-0.16-0.42-0.4-1.04-0.71-1.87c-0.42-1.07-1.07-2.66-1.97-4.75
		c-0.19-0.42-0.64-0.65-1.34-0.69c0.32,0.02-0.23,0.03-1.66,0.03c-0.16,0-0.24,0.27-0.24,0.82c0,0.73,0.07,1.82,0.2,3.27
		c0.13,1.45,0.2,2.54,0.2,3.27c0,0.18-0.05,0.29-0.15,0.32c-0.15,0.01-0.3,0.02-0.45,0.03c-0.63,0.04-1.62,0.06-2.96,0.06
		c-1.54,0-2.46-0.03-2.77-0.1s-0.47-0.23-0.47-0.5c0-1.18,0.06-2.96,0.17-5.35c0.11-2.38,0.17-4.17,0.17-5.37
		c0-4.54-0.1-8.09-0.31-10.63l-0.02-0.23c-0.01-0.18,0.16-0.31,0.51-0.37s1.99-0.13,4.92-0.19c1.99-0.04,3.57-0.06,4.75-0.06
		c2.45,0,4.45,0.55,5.99,1.66c1.75,1.25,2.63,3.05,2.63,5.4c0,1.57-0.23,2.82-0.68,3.75s-1.28,1.84-2.5,2.72
		c-0.25,0.17-0.37,0.33-0.37,0.48c0-0.01,0.66,1.34,1.97,4.04S246.06,26.13,246.06,26.4z M239.29,11.95c0-1.31-0.43-2.22-1.29-2.72
		c-0.67-0.39-1.71-0.58-3.13-0.58c-1.02,0-1.56,0.16-1.63,0.47c-0.06,0.37-0.1,1.42-0.1,3.16c0,0.25,0.01,0.61,0.02,1.1
		s0.02,0.84,0.02,1.08c0,0.05,0.17,0.11,0.52,0.16c0.66,0.1,1.34,0.15,2.06,0.15C238.12,14.75,239.29,13.82,239.29,11.95z"/>
</g>
</svg>
