<?xml version="1.0" encoding="utf-8"?>
<!-- Generator: Adobe Illustrator 23.0.1, SVG Export Plug-In . SVG Version: 6.00 Build 0)  -->
<svg version="1.1" id="Layer_1" xmlns="http://www.w3.org/2000/svg" xmlns:xlink="http://www.w3.org/1999/xlink" x="0px" y="0px"
	 viewBox="0 0 218.64 29.1" style="enable-background:new 0 0 218.64 29.1;" xml:space="preserve">
<style type="text/css">
	.st0{fill:#FFFFFF;}
	.st1{fill:none;}
	.st2{font-family:'BerlinSansFBDemi-Bold';}
	.st3{font-size:38px;}
</style>
<g>
	<path class="st0" d="M22.42,1H2.17C1.53,1,1,1.53,1,2.17V27.9c0,0.65,0.53,1.17,1.17,1.17h20.25c0.65,0,1.17-0.53,1.17-1.17V2.17
		C23.59,1.53,23.07,1,22.42,1z M6.13,27.61c-1.16,0-2.1-0.94-2.1-2.1s0.94-2.1,2.1-2.1s2.1,0.94,2.1,2.1S7.3,27.61,6.13,27.61z
		 M6.16,22.4c-1.16,0-2.1-0.94-2.1-2.1c0-1.16,0.94-2.1,2.1-2.1s2.1,0.94,2.1,2.1C8.26,21.46,7.32,22.4,6.16,22.4z M6.18,17.19
		c-1.16,0-2.1-0.94-2.1-2.1s0.94-2.1,2.1-2.1s2.1,0.94,2.1,2.1S7.34,17.19,6.18,17.19z M12.25,27.61c-1.16,0-2.1-0.94-2.1-2.1
		s0.94-2.1,2.1-2.1s2.1,0.94,2.1,2.1S13.41,27.61,12.25,27.61z M12.27,22.4c-1.16,0-2.1-0.94-2.1-2.1c0-1.16,0.94-2.1,2.1-2.1
		s2.1,0.94,2.1,2.1C14.38,21.46,13.43,22.4,12.27,22.4z M12.3,17.19c-1.16,0-2.1-0.94-2.1-2.1s0.94-2.1,2.1-2.1s2.1,0.94,2.1,2.1
		S13.46,17.19,12.3,17.19z M18.41,27.61c-1.16,0-2.1-0.94-2.1-2.1s0.94-2.1,2.1-2.1s2.1,0.94,2.1,2.1S19.57,27.61,18.41,27.61z
		 M18.43,22.4c-1.16,0-2.1-0.94-2.1-2.1c0-1.16,0.94-2.1,2.1-2.1s2.1,0.94,2.1,2.1C20.54,21.46,19.6,22.4,18.43,22.4z M18.46,17.19
		c-1.16,0-2.1-0.94-2.1-2.1s0.94-2.1,2.1-2.1c1.16,0,2.1,0.94,2.1,2.1S19.62,17.19,18.46,17.19z M21.05,9.95
		c0,0.65-0.53,1.17-1.17,1.17H4.72c-0.65,0-1.17-0.53-1.17-1.17v-4.5c0-0.65,0.53-1.17,1.17-1.17h15.16c0.65,0,1.17,0.53,1.17,1.17
		V9.95z"/>
</g>
<rect x="38.1" y="1.07" class="st1" width="207.93" height="28.03"/>
<text transform="matrix(1 0 0 1 38.0994 27.8568)" class="st0 st2 st3">Calculator</text>
</svg>
