<?xml version="1.0" encoding="utf-8"?>
<!-- Generator: Adobe Illustrator 23.0.1, SVG Export Plug-In . SVG Version: 6.00 Build 0)  -->
<svg version="1.1" id="Layer_1" xmlns="http://www.w3.org/2000/svg" xmlns:xlink="http://www.w3.org/1999/xlink" x="0px" y="0px"
	 viewBox="0 0 525.6 52.05" style="enable-background:new 0 0 525.6 52.05;" xml:space="preserve">
<style type="text/css">
	.st0{fill:#FFFFFF;}
	.st1{fill:#FFFFFF;stroke:#FFFFFF;stroke-width:2;stroke-miterlimit:10;}
	.st2{fill:#FFFFFF;stroke:#FFFFFF;stroke-miterlimit:10;}
</style>
<g>
	<path class="st1" d="M74.34,29.3c1.57,0.48,2.76,1.22,3.57,2.2c0.81,0.99,1.21,2.2,1.21,3.65c0,2.38-0.99,4.38-2.96,6.01
		c-1.97,1.63-4.45,2.45-7.43,2.45c-1.66,0-2.77-0.23-3.31-0.68c-0.55-0.46-0.82-1.34-0.82-2.64c0-0.31,0.05-1.88,0.16-4.71
		c0.11-2.83,0.16-5.48,0.16-7.96c0-3.52-0.08-6.22-0.24-8.1c-0.16-1.87-0.42-3.27-0.79-4.18c1.61,0,3.27-0.04,4.99-0.12
		c0.42-0.03,0.67-0.04,0.75-0.04c2.89,0,5.18,0.68,6.88,2.05s2.54,3.18,2.54,5.45c0,1.48-0.4,2.77-1.19,3.88
		C77.08,27.67,75.9,28.59,74.34,29.3z M67.94,18.2c-0.03,1.06-0.06,2.31-0.08,3.75c-0.02,1.44-0.04,3.5-0.06,6.18
		c0.32,0.05,0.63,0.09,0.92,0.11c0.3,0.02,0.58,0.03,0.85,0.03c2.02,0,3.57-0.45,4.66-1.34c1.09-0.89,1.64-2.16,1.64-3.79
		c0-1.63-0.52-2.88-1.56-3.75c-1.04-0.87-2.53-1.3-4.45-1.3c-0.31,0-0.62,0.01-0.94,0.03C68.61,18.13,68.28,18.16,67.94,18.2z
		 M67.83,30.79v2.76c0,0.94,0.01,1.92,0.02,2.94c0.01,1.02,0.03,2.3,0.05,3.84c0.39,0.06,0.76,0.11,1.13,0.15
		c0.36,0.03,0.72,0.05,1.08,0.05c1.74,0,3.15-0.47,4.21-1.4s1.6-2.15,1.6-3.65c0-1.57-0.55-2.75-1.64-3.55
		c-1.09-0.8-2.71-1.2-4.83-1.2c-0.18,0-0.38,0-0.59,0.01C68.64,30.73,68.3,30.75,67.83,30.79z"/>
	<path class="st1" d="M97.82,34.47h-9.24c-0.91,2.27-1.55,4.05-1.9,5.35c-0.36,1.29-0.54,2.4-0.54,3.33l-0.02,0.31
		c-0.26,0.04-0.45,0.06-0.57,0.07c-0.12,0.01-0.23,0.01-0.33,0.01c-0.74,0-1.3-0.17-1.69-0.52c-0.39-0.34-0.58-0.85-0.58-1.52
		c0-0.67,1.1-3.54,3.31-8.63c2.21-5.09,4.14-9.82,5.79-14.2c-0.18-0.3-0.38-0.59-0.59-0.87s-0.44-0.56-0.67-0.85
		c0.42-0.6,0.81-1.04,1.15-1.31s0.7-0.41,1.05-0.41c0.49,0,0.97,0.36,1.43,1.09c0.46,0.72,1,1.95,1.61,3.69
		c0.54,1.5,1.27,3.6,2.2,6.29c3.17,9.12,5.37,14.36,6.61,15.72c-0.43,0.55-0.83,0.94-1.2,1.17c-0.36,0.23-0.75,0.35-1.14,0.35
		c-1.15,0-2.45-2.24-3.91-6.74C98.25,35.81,98,35.03,97.82,34.47z M93.41,21.84l-0.82,2.19c-1.31,3.52-2.27,6.11-2.89,7.75h7.19
		c-0.58-1.79-1.16-3.51-1.74-5.16C94.57,24.98,93.99,23.38,93.41,21.84z"/>
	<path class="st1" d="M125.17,19.16c-0.63-0.33-1.3-0.57-2.02-0.73c-0.72-0.16-1.49-0.23-2.32-0.23c-3.25,0-5.87,1.02-7.86,3.04
		s-2.99,4.69-2.99,7.98c0,3.25,0.94,5.92,2.82,8.01c1.88,2.09,4.29,3.13,7.23,3.13c0.91,0,1.78-0.12,2.61-0.37
		c0.83-0.25,1.65-0.63,2.47-1.16c0.34,0.51,0.59,0.96,0.74,1.34c0.15,0.39,0.23,0.74,0.23,1.07c0,0.81-0.5,1.44-1.5,1.89
		s-2.4,0.68-4.18,0.68c-1.93,0-3.7-0.3-5.32-0.9c-1.62-0.6-3.03-1.47-4.23-2.62c-1.45-1.38-2.53-2.97-3.25-4.75
		c-0.72-1.78-1.08-3.76-1.08-5.92c0-2.28,0.44-4.38,1.32-6.29c0.88-1.91,2.2-3.62,3.95-5.12c1.3-1.11,2.83-1.97,4.6-2.58
		c1.77-0.61,3.63-0.91,5.58-0.91c1.5,0,2.56,0.14,3.17,0.43c0.61,0.29,0.91,0.78,0.91,1.49c0,0.3-0.07,0.66-0.21,1.07
		C125.68,18.11,125.46,18.6,125.17,19.16z"/>
	<path class="st1" d="M134.87,28.05c2.94-3.31,5.16-6,6.67-8.05c1.51-2.05,2.48-3.69,2.91-4.93c0.87,0.26,1.51,0.56,1.93,0.91
		c0.42,0.35,0.63,0.75,0.63,1.22c0,0.77-1.75,3.05-5.24,6.83c-1.5,1.62-2.69,2.92-3.57,3.9c0.46,0.56,1.12,1.36,1.98,2.39
		c5.8,6.94,9.27,10.46,10.42,10.53c-0.19,0.97-0.48,1.71-0.85,2.22c-0.37,0.52-0.78,0.77-1.24,0.77c-0.43,0-0.9-0.19-1.39-0.56
		c-0.5-0.37-1.16-1.07-2.01-2.09c-0.14-0.17-1.34-1.71-3.62-4.63c-2.28-2.92-4.49-5.53-6.63-7.84v2.86c0,3.05,0.07,5.4,0.2,7.04
		c0.14,1.64,0.36,2.88,0.67,3.71c-0.54,0.39-1.02,0.68-1.44,0.87c-0.43,0.19-0.83,0.28-1.2,0.28c-0.57,0-0.98-0.25-1.24-0.75
		c-0.26-0.5-0.38-1.31-0.38-2.42c0-0.64,0.05-2.43,0.16-5.38c0.11-2.95,0.16-5.58,0.16-7.89c0-3.2-0.08-5.59-0.25-7.18
		c-0.17-1.59-0.44-2.79-0.81-3.61c0.55-0.33,1.05-0.57,1.51-0.74c0.46-0.17,0.89-0.25,1.29-0.25c0.6,0,1.02,0.19,1.26,0.56
		c0.23,0.37,0.35,1.05,0.35,2.05c0,0.2-0.02,0.69-0.05,1.49C134.95,22.41,134.88,25.31,134.87,28.05z"/>
	<path class="st1" d="M169.65,30.64c0.57-0.4,1.07-0.71,1.51-0.91c0.44-0.2,0.79-0.3,1.07-0.3c0.71,0,1.2,0.29,1.5,0.88
		s0.44,1.64,0.44,3.17c0,1.98-0.14,3.73-0.41,5.23c-0.27,1.5-0.63,2.53-1.06,3.07c-0.6,0.73-1.5,1.28-2.69,1.65
		c-1.19,0.37-2.66,0.56-4.42,0.56c-4.26,0-7.68-1.22-10.26-3.65c-2.58-2.43-3.87-5.64-3.87-9.62c0-2,0.33-3.88,0.99-5.65
		s1.65-3.4,2.96-4.9c1.5-1.74,3.28-3.07,5.32-4c2.04-0.93,4.21-1.4,6.5-1.4c1,0,1.74,0.15,2.2,0.45c0.47,0.3,0.7,0.78,0.7,1.43
		c0,0.3-0.05,0.65-0.15,1.05c-0.1,0.4-0.26,0.84-0.46,1.32c-0.44-0.21-0.92-0.36-1.42-0.46c-0.5-0.1-1.06-0.15-1.67-0.15
		c-3.31,0-6.04,1.1-8.17,3.3c-2.13,2.2-3.19,5.02-3.19,8.45c0,3.37,0.93,5.97,2.78,7.8c1.85,1.83,4.48,2.75,7.88,2.75
		c0.85,0,1.69-0.08,2.49-0.24c0.81-0.16,1.6-0.41,2.37-0.73c0.08-0.57,0.14-1.17,0.18-1.8c0.04-0.63,0.06-1.31,0.06-2.04
		c0-1.23-0.1-2.27-0.29-3.14C170.34,31.87,170.05,31.17,169.65,30.64z"/>
	<path class="st1" d="M188.27,31.75c0.83,0.33,1.86,1.29,3.09,2.88c0.33,0.43,0.58,0.76,0.75,0.98c1.29,1.61,2.41,2.86,3.37,3.75
		c0.96,0.89,1.77,1.45,2.44,1.65c-0.33,1.02-0.68,1.75-1.04,2.18c-0.36,0.44-0.8,0.66-1.3,0.66c-0.42,0-0.89-0.2-1.39-0.61
		c-0.51-0.4-1.1-1.07-1.79-2c-0.51-0.68-1.21-1.62-2.08-2.82c-2.69-3.73-4.83-5.6-6.42-5.6c-0.18,0-0.4,0.01-0.67,0.03
		c-0.26,0.02-0.59,0.06-0.97,0.11c0.07,2.91,0.18,5.04,0.34,6.39c0.16,1.35,0.4,2.4,0.73,3.14c-0.55,0.34-1.05,0.59-1.51,0.75
		c-0.46,0.16-0.89,0.24-1.27,0.24c-0.63,0-1.05-0.18-1.28-0.55c-0.23-0.37-0.34-1.12-0.34-2.25c0-0.39,0.05-2.11,0.16-5.15
		c0.11-3.04,0.16-5.9,0.16-8.58c0-3.45-0.08-6-0.24-7.66c-0.16-1.66-0.42-2.92-0.77-3.8c1.47-0.05,3.01-0.13,4.61-0.24
		c1.61-0.11,2.5-0.17,2.68-0.17c2.56,0,4.58,0.7,6.06,2.09c1.47,1.4,2.21,3.29,2.21,5.68c0,2.1-0.47,3.9-1.4,5.39
		C191.47,29.77,190.09,30.93,188.27,31.75z M182.53,18.4c-0.09,2.18-0.16,4.27-0.2,6.27s-0.07,3.93-0.07,5.8
		c0.09,0,0.22,0.01,0.4,0.02c0.18,0.01,0.31,0.02,0.4,0.02c2.32,0,4.14-0.63,5.45-1.88c1.31-1.25,1.96-2.99,1.96-5.21
		c0-1.7-0.48-3.01-1.44-3.94c-0.96-0.93-2.32-1.39-4.07-1.39c-0.39,0-0.78,0.03-1.18,0.08C183.38,18.22,182.96,18.29,182.53,18.4z"
		/>
	<path class="st1" d="M212.09,44.07c-1.73,0-3.35-0.33-4.86-0.99c-1.51-0.66-2.84-1.61-3.99-2.87c-1.23-1.33-2.16-2.88-2.78-4.64
		c-0.62-1.76-0.93-3.73-0.93-5.91c0-2.13,0.33-4.1,1-5.93c0.67-1.83,1.65-3.44,2.95-4.84c1.26-1.37,2.73-2.41,4.41-3.11
		c1.67-0.7,3.5-1.06,5.47-1.06c3.86,0,6.95,1.25,9.28,3.76c2.32,2.51,3.48,5.84,3.48,9.99c0,2.05-0.32,3.99-0.95,5.81
		c-0.63,1.82-1.55,3.44-2.76,4.87c-1.38,1.64-2.93,2.88-4.65,3.7C216.04,43.66,214.15,44.07,212.09,44.07z M222.54,28.74
		c0-3.3-0.87-5.95-2.6-7.93c-1.73-1.98-4.05-2.98-6.95-2.98c-3,0-5.39,1.05-7.19,3.15c-1.8,2.1-2.7,4.9-2.7,8.4
		c0,3.38,0.87,6.13,2.61,8.25c1.74,2.12,4.01,3.18,6.8,3.18c2.96,0,5.37-1.12,7.23-3.37C221.61,35.2,222.54,32.3,222.54,28.74z"/>
	<path class="st1" d="M229.85,16.22c0.5-0.33,0.99-0.57,1.48-0.74c0.48-0.17,0.96-0.25,1.43-0.25c0.6,0,1.02,0.2,1.24,0.6
		s0.33,1.2,0.33,2.42c0,0.54-0.06,2.13-0.19,4.78c-0.13,2.65-0.19,5.03-0.19,7.13c0,3.9,0.48,6.66,1.45,8.28
		c0.97,1.62,2.6,2.43,4.89,2.43c2.67,0,4.6-1.04,5.79-3.13c1.2-2.09,1.79-5.47,1.79-10.14c0-2.92-0.15-5.31-0.44-7.17
		c-0.29-1.85-0.73-3.19-1.31-4.01c0.5-0.39,0.96-0.68,1.37-0.88c0.42-0.2,0.79-0.29,1.14-0.29c0.89,0,1.5,0.53,1.82,1.6
		c0.33,1.06,0.49,3.5,0.49,7.31c0,7.17-0.86,12.29-2.57,15.36c-1.71,3.07-4.54,4.61-8.48,4.61c-3.25,0-5.59-0.96-7.02-2.88
		c-1.43-1.92-2.15-5.08-2.15-9.48c0-0.98,0.03-2.37,0.09-4.17c0.06-1.8,0.09-3.11,0.09-3.94c0-1.79-0.09-3.28-0.26-4.47
		C230.48,17.98,230.22,17,229.85,16.22z"/>
	<path class="st1" d="M276.78,43.73c-2.08-2.35-4.97-5.98-8.64-10.9c-3.68-4.91-6.43-8.47-8.25-10.66
		c0.01,4.91,0.09,10.09,0.24,15.55c0.05,1.45,0.07,2.33,0.07,2.64c0,1.29-0.12,2.14-0.36,2.54c-0.24,0.4-0.68,0.6-1.33,0.6
		c-0.42,0-0.86-0.08-1.32-0.25c-0.46-0.17-0.91-0.42-1.37-0.74c0.61-1.2,1.05-2.93,1.3-5.18c0.25-2.25,0.38-6.22,0.38-11.91
		c0-2.68-0.15-4.57-0.44-5.7c-0.29-1.12-0.8-1.91-1.53-2.35c0.5-0.68,0.95-1.17,1.33-1.46c0.39-0.29,0.77-0.44,1.16-0.44
		c0.36,0,0.72,0.13,1.08,0.4c0.35,0.27,0.79,0.74,1.3,1.42c0.09,0.12,0.3,0.41,0.63,0.86c4.36,5.95,9.26,12.39,14.69,19.32
		c0.03-1.94,0.06-3.66,0.08-5.15c0.02-1.49,0.03-2.76,0.03-3.82c0-3.47-0.12-6.12-0.36-7.94c-0.24-1.82-0.63-3.28-1.18-4.38
		c0.51-0.31,0.98-0.54,1.39-0.69c0.42-0.15,0.81-0.23,1.17-0.23c0.65,0,1.1,0.22,1.34,0.66c0.24,0.44,0.37,1.38,0.37,2.83
		c0,0.86-0.07,2.98-0.2,6.35c-0.13,3.37-0.2,6.33-0.2,8.86c0,1.64,0.03,3.18,0.1,4.62c0.07,1.44,0.16,2.78,0.29,4.03L276.78,43.73z"
		/>
	<path class="st1" d="M284.28,15.34c1.56-0.03,3.12-0.07,4.69-0.14c1.57-0.06,2.37-0.1,2.4-0.1c4.45,0,8,1.21,10.63,3.64
		c2.64,2.43,3.95,5.67,3.95,9.71c0,2.17-0.39,4.21-1.17,6.14c-0.78,1.93-1.9,3.61-3.37,5.04c-1.36,1.33-2.94,2.33-4.76,3.01
		c-1.82,0.67-3.85,1.01-6.09,1.01c-2.29,0-3.8-0.21-4.52-0.63c-0.72-0.42-1.08-1.22-1.08-2.41c0-0.09,0.05-1.64,0.16-4.64
		c0.11-3,0.16-5.97,0.16-8.89c0-3.17-0.08-5.68-0.25-7.53C284.87,17.72,284.62,16.31,284.28,15.34z M288.55,18.52
		c-0.08,2.77-0.14,5.25-0.17,7.45c-0.03,2.2-0.05,4.12-0.05,5.75c0,1.44,0.01,2.84,0.04,4.2c0.03,1.36,0.08,2.69,0.15,3.98
		c0.54,0.16,1.07,0.27,1.61,0.35c0.54,0.08,1.09,0.12,1.63,0.12c3.18,0,5.74-1.02,7.7-3.05c1.95-2.04,2.93-4.71,2.93-8.01
		c0-3.28-0.97-5.94-2.9-7.99c-1.94-2.05-4.45-3.07-7.55-3.07c-0.63,0-1.22,0.02-1.78,0.07C289.6,18.36,289.06,18.42,288.55,18.52z"
		/>
	<path class="st1" d="M337.15,30.64c0.57-0.4,1.07-0.71,1.51-0.91s0.79-0.3,1.07-0.3c0.71,0,1.2,0.29,1.5,0.88
		c0.29,0.59,0.44,1.64,0.44,3.17c0,1.98-0.14,3.73-0.41,5.23c-0.27,1.5-0.63,2.53-1.06,3.07c-0.6,0.73-1.5,1.28-2.69,1.65
		c-1.19,0.37-2.66,0.56-4.42,0.56c-4.26,0-7.68-1.22-10.26-3.65c-2.58-2.43-3.87-5.64-3.87-9.62c0-2,0.33-3.88,0.99-5.65
		s1.65-3.4,2.96-4.9c1.5-1.74,3.28-3.07,5.32-4c2.04-0.93,4.21-1.4,6.5-1.4c1,0,1.74,0.15,2.2,0.45c0.47,0.3,0.7,0.78,0.7,1.43
		c0,0.3-0.05,0.65-0.15,1.05c-0.1,0.4-0.26,0.84-0.46,1.32c-0.44-0.21-0.92-0.36-1.42-0.46c-0.5-0.1-1.06-0.15-1.67-0.15
		c-3.31,0-6.04,1.1-8.17,3.3c-2.13,2.2-3.19,5.02-3.19,8.45c0,3.37,0.93,5.97,2.78,7.8c1.85,1.83,4.48,2.75,7.88,2.75
		c0.85,0,1.69-0.08,2.49-0.24c0.81-0.16,1.6-0.41,2.37-0.73c0.08-0.57,0.14-1.17,0.18-1.8c0.04-0.63,0.06-1.31,0.06-2.04
		c0-1.23-0.1-2.27-0.29-3.14C337.85,31.87,337.55,31.17,337.15,30.64z"/>
	<path class="st1" d="M359.33,19.32c-0.6-0.31-1.34-0.54-2.19-0.69c-0.86-0.15-1.95-0.23-3.27-0.23c-0.55,0-1.56,0.02-3.04,0.06
		c-0.36,0.01-0.64,0.02-0.84,0.02l-0.14,8.65c0.31,0.03,0.64,0.04,0.99,0.04c0.35,0,0.91,0,1.67,0c1.51,0,2.76-0.04,3.75-0.12
		c0.98-0.08,1.71-0.2,2.16-0.35c0.14,0.37,0.24,0.69,0.31,0.97c0.07,0.28,0.1,0.53,0.1,0.75c0,0.63-0.18,1.08-0.53,1.35
		c-0.35,0.27-0.93,0.41-1.74,0.41c-0.26,0-0.91-0.01-1.94-0.04s-1.92-0.04-2.67-0.04c-0.57,0-1.01,0-1.32,0.01
		c-0.31,0.01-0.59,0.02-0.85,0.03c0,1.47-0.01,3.04-0.04,4.71c-0.03,1.66-0.07,3.49-0.13,5.47c0.11,0,0.28,0.01,0.51,0.02
		c1.49,0.04,2.56,0.06,3.19,0.06c1.22,0,2.26-0.08,3.12-0.24c0.86-0.16,1.63-0.43,2.3-0.79c0.25,0.5,0.43,0.93,0.54,1.3
		c0.11,0.37,0.16,0.71,0.16,1.03c0,0.69-0.2,1.18-0.6,1.46c-0.4,0.28-1.16,0.42-2.27,0.42c-0.55,0-1.37-0.02-2.46-0.06
		c-1.09-0.04-1.91-0.06-2.44-0.06c-1.21,0-2.41,0.03-3.62,0.1c-0.25,0.01-0.4,0.02-0.46,0.02c-0.4,0-0.68-0.1-0.85-0.31
		c-0.17-0.21-0.25-0.57-0.25-1.1c0-0.27,0.03-0.97,0.09-2.09c0.18-4.05,0.27-7.84,0.27-11.38c0-3.51-0.05-6.32-0.16-8.44
		c-0.11-2.11-0.28-3.7-0.5-4.76h2.17c2.67,0,5.4-0.1,8.22-0.29c0.6-0.04,0.97-0.06,1.09-0.06c0.92,0,1.55,0.12,1.9,0.35
		c0.34,0.24,0.51,0.65,0.51,1.25c0,0.34-0.06,0.72-0.18,1.15C359.76,18.32,359.58,18.8,359.33,19.32z"/>
	<path class="st1" d="M384.25,43.73c-2.08-2.35-4.97-5.98-8.64-10.9c-3.68-4.91-6.43-8.47-8.25-10.66
		c0.01,4.91,0.09,10.09,0.24,15.55c0.05,1.45,0.07,2.33,0.07,2.64c0,1.29-0.12,2.14-0.36,2.54c-0.24,0.4-0.68,0.6-1.33,0.6
		c-0.42,0-0.86-0.08-1.32-0.25c-0.46-0.17-0.91-0.42-1.37-0.74c0.61-1.2,1.05-2.93,1.3-5.18c0.25-2.25,0.38-6.22,0.38-11.91
		c0-2.68-0.15-4.57-0.44-5.7c-0.29-1.12-0.8-1.91-1.53-2.35c0.5-0.68,0.95-1.17,1.33-1.46c0.39-0.29,0.77-0.44,1.16-0.44
		c0.36,0,0.72,0.13,1.08,0.4c0.35,0.27,0.79,0.74,1.3,1.42c0.09,0.12,0.3,0.41,0.63,0.86c4.36,5.95,9.26,12.39,14.69,19.32
		c0.03-1.94,0.06-3.66,0.08-5.15c0.02-1.49,0.03-2.76,0.03-3.82c0-3.47-0.12-6.12-0.36-7.94c-0.24-1.82-0.63-3.28-1.18-4.38
		c0.51-0.31,0.98-0.54,1.39-0.69c0.42-0.15,0.81-0.23,1.17-0.23c0.65,0,1.1,0.22,1.34,0.66c0.24,0.44,0.37,1.38,0.37,2.83
		c0,0.86-0.07,2.98-0.2,6.35c-0.13,3.37-0.2,6.33-0.2,8.86c0,1.64,0.03,3.18,0.1,4.62c0.07,1.44,0.16,2.78,0.29,4.03L384.25,43.73z"
		/>
	<path class="st1" d="M405.33,19.32c-0.6-0.31-1.34-0.54-2.19-0.69c-0.86-0.15-1.95-0.23-3.27-0.23c-0.55,0-1.56,0.02-3.04,0.06
		c-0.36,0.01-0.64,0.02-0.84,0.02l-0.14,8.65c0.31,0.03,0.64,0.04,0.99,0.04c0.35,0,0.91,0,1.67,0c1.51,0,2.76-0.04,3.75-0.12
		c0.98-0.08,1.71-0.2,2.16-0.35c0.14,0.37,0.24,0.69,0.31,0.97c0.07,0.28,0.1,0.53,0.1,0.75c0,0.63-0.18,1.08-0.53,1.35
		c-0.35,0.27-0.93,0.41-1.74,0.41c-0.26,0-0.91-0.01-1.94-0.04c-1.03-0.03-1.92-0.04-2.67-0.04c-0.57,0-1.01,0-1.32,0.01
		c-0.31,0.01-0.59,0.02-0.85,0.03c0,1.47-0.01,3.04-0.04,4.71c-0.03,1.66-0.07,3.49-0.13,5.47c0.11,0,0.28,0.01,0.51,0.02
		c1.49,0.04,2.56,0.06,3.19,0.06c1.22,0,2.26-0.08,3.12-0.24c0.86-0.16,1.63-0.43,2.3-0.79c0.25,0.5,0.43,0.93,0.54,1.3
		c0.11,0.37,0.16,0.71,0.16,1.03c0,0.69-0.2,1.18-0.6,1.46c-0.4,0.28-1.16,0.42-2.27,0.42c-0.55,0-1.37-0.02-2.46-0.06
		c-1.09-0.04-1.91-0.06-2.44-0.06c-1.21,0-2.41,0.03-3.62,0.1c-0.25,0.01-0.4,0.02-0.46,0.02c-0.4,0-0.68-0.1-0.85-0.31
		c-0.17-0.21-0.25-0.57-0.25-1.1c0-0.27,0.03-0.97,0.09-2.09c0.18-4.05,0.27-7.84,0.27-11.38c0-3.51-0.05-6.32-0.16-8.44
		c-0.11-2.11-0.28-3.7-0.5-4.76h2.17c2.67,0,5.4-0.1,8.22-0.29c0.6-0.04,0.97-0.06,1.09-0.06c0.92,0,1.55,0.12,1.9,0.35
		c0.34,0.24,0.51,0.65,0.51,1.25c0,0.34-0.06,0.72-0.18,1.15C405.77,18.32,405.58,18.8,405.33,19.32z"/>
	<path class="st1" d="M419.73,31.75c0.83,0.33,1.86,1.29,3.09,2.88c0.33,0.43,0.58,0.76,0.75,0.98c1.29,1.61,2.41,2.86,3.37,3.75
		c0.96,0.89,1.77,1.45,2.44,1.65c-0.33,1.02-0.68,1.75-1.04,2.18c-0.36,0.44-0.8,0.66-1.3,0.66c-0.42,0-0.89-0.2-1.39-0.61
		c-0.51-0.4-1.1-1.07-1.79-2c-0.51-0.68-1.21-1.62-2.08-2.82c-2.69-3.73-4.83-5.6-6.42-5.6c-0.18,0-0.4,0.01-0.67,0.03
		c-0.26,0.02-0.59,0.06-0.97,0.11c0.07,2.91,0.18,5.04,0.34,6.39c0.16,1.35,0.4,2.4,0.73,3.14c-0.55,0.34-1.05,0.59-1.51,0.75
		c-0.46,0.16-0.89,0.24-1.27,0.24c-0.63,0-1.05-0.18-1.28-0.55c-0.23-0.37-0.34-1.12-0.34-2.25c0-0.39,0.05-2.11,0.16-5.15
		c0.11-3.04,0.16-5.9,0.16-8.58c0-3.45-0.08-6-0.24-7.66c-0.16-1.66-0.42-2.92-0.77-3.8c1.47-0.05,3.01-0.13,4.61-0.24
		c1.61-0.11,2.5-0.17,2.68-0.17c2.56,0,4.58,0.7,6.06,2.09c1.47,1.4,2.21,3.29,2.21,5.68c0,2.1-0.47,3.9-1.4,5.39
		C422.93,29.77,421.55,30.93,419.73,31.75z M413.99,18.4c-0.09,2.18-0.16,4.27-0.2,6.27s-0.07,3.93-0.07,5.8
		c0.09,0,0.22,0.01,0.4,0.02c0.18,0.01,0.31,0.02,0.4,0.02c2.32,0,4.14-0.63,5.45-1.88c1.31-1.25,1.96-2.99,1.96-5.21
		c0-1.7-0.48-3.01-1.44-3.94c-0.96-0.93-2.32-1.39-4.07-1.39c-0.39,0-0.78,0.03-1.18,0.08C414.84,18.22,414.43,18.29,413.99,18.4z"
		/>
	<path class="st1" d="M445.41,34.47h-9.24c-0.91,2.27-1.55,4.05-1.9,5.35c-0.36,1.29-0.54,2.4-0.54,3.33l-0.02,0.31
		c-0.26,0.04-0.45,0.06-0.57,0.07c-0.12,0.01-0.23,0.01-0.33,0.01c-0.74,0-1.3-0.17-1.69-0.52c-0.39-0.34-0.58-0.85-0.58-1.52
		c0-0.67,1.1-3.54,3.31-8.63c2.21-5.09,4.14-9.82,5.79-14.2c-0.18-0.3-0.38-0.59-0.59-0.87s-0.44-0.56-0.67-0.85
		c0.42-0.6,0.81-1.04,1.15-1.31s0.7-0.41,1.05-0.41c0.49,0,0.97,0.36,1.43,1.09c0.46,0.72,1,1.95,1.61,3.69
		c0.54,1.5,1.27,3.6,2.2,6.29c3.17,9.12,5.37,14.36,6.61,15.72c-0.43,0.55-0.83,0.94-1.2,1.17c-0.36,0.23-0.75,0.35-1.14,0.35
		c-1.15,0-2.45-2.24-3.91-6.74C445.85,35.81,445.59,35.03,445.41,34.47z M441,21.84l-0.82,2.19c-1.31,3.52-2.27,6.11-2.89,7.75h7.19
		c-0.58-1.79-1.16-3.51-1.74-5.16C442.16,24.98,441.58,23.38,441,21.84z"/>
	<path class="st1" d="M463.11,42.5c-0.55,0.35-1.06,0.61-1.55,0.78c-0.49,0.17-0.95,0.25-1.38,0.25c-0.58,0-0.99-0.19-1.22-0.56
		s-0.35-1.07-0.35-2.09c0-0.67,0.06-2.69,0.18-6.08c0.12-3.39,0.18-6.44,0.18-9.15c0-0.69-0.02-2.15-0.05-4.39
		c-0.01-1.08-0.02-1.94-0.02-2.57h-1.3c-1.67,0-3.03,0.09-4.06,0.25c-1.03,0.17-1.83,0.44-2.38,0.8c-0.26-0.57-0.46-1.07-0.58-1.48
		c-0.13-0.41-0.19-0.77-0.19-1.09c0-0.59,0.18-1,0.53-1.24c0.35-0.24,0.97-0.36,1.84-0.36c0.45,0,1.76,0.06,3.91,0.18
		c2.15,0.12,4.08,0.18,5.79,0.18c2.06,0,3.7-0.09,4.93-0.27c1.22-0.18,2.15-0.48,2.79-0.88c0.23,0.42,0.4,0.8,0.5,1.15
		c0.11,0.35,0.16,0.67,0.16,0.97c0,0.71-0.23,1.22-0.68,1.56c-0.46,0.33-1.16,0.5-2.12,0.5c-0.35,0-1.21-0.04-2.56-0.11
		c-1.36-0.07-2.44-0.12-3.25-0.15c-0.08,2.29-0.14,4.44-0.18,6.46c-0.04,2.02-0.06,3.88-0.06,5.57c0,3.25,0.09,5.81,0.26,7.66
		C462.44,40.26,462.72,41.63,463.11,42.5z"/>
	<path class="st1" d="M485.2,44.07c-1.73,0-3.35-0.33-4.86-0.99c-1.51-0.66-2.84-1.61-3.99-2.87c-1.23-1.33-2.16-2.88-2.78-4.64
		c-0.62-1.76-0.93-3.73-0.93-5.91c0-2.13,0.33-4.1,1-5.93c0.67-1.83,1.65-3.44,2.95-4.84c1.26-1.37,2.73-2.41,4.41-3.11
		c1.67-0.7,3.5-1.06,5.47-1.06c3.86,0,6.95,1.25,9.28,3.76c2.32,2.51,3.48,5.84,3.48,9.99c0,2.05-0.32,3.99-0.95,5.81
		c-0.63,1.82-1.55,3.44-2.76,4.87c-1.38,1.64-2.93,2.88-4.65,3.7C489.15,43.66,487.26,44.07,485.2,44.07z M495.65,28.74
		c0-3.3-0.87-5.95-2.6-7.93c-1.73-1.98-4.05-2.98-6.95-2.98c-3,0-5.39,1.05-7.19,3.15c-1.8,2.1-2.7,4.9-2.7,8.4
		c0,3.38,0.87,6.13,2.61,8.25c1.74,2.12,4.01,3.18,6.8,3.18c2.96,0,5.37-1.12,7.23-3.37C494.72,35.2,495.65,32.3,495.65,28.74z"/>
	<path class="st1" d="M513.06,31.75c0.83,0.33,1.86,1.29,3.09,2.88c0.33,0.43,0.58,0.76,0.75,0.98c1.29,1.61,2.41,2.86,3.37,3.75
		c0.96,0.89,1.77,1.45,2.44,1.65c-0.33,1.02-0.68,1.75-1.04,2.18c-0.36,0.44-0.8,0.66-1.3,0.66c-0.42,0-0.89-0.2-1.39-0.61
		c-0.51-0.4-1.1-1.07-1.79-2c-0.51-0.68-1.21-1.62-2.08-2.82c-2.69-3.73-4.83-5.6-6.42-5.6c-0.18,0-0.4,0.01-0.67,0.03
		c-0.26,0.02-0.59,0.06-0.97,0.11c0.07,2.91,0.18,5.04,0.34,6.39c0.16,1.35,0.4,2.4,0.73,3.14c-0.55,0.34-1.05,0.59-1.51,0.75
		c-0.46,0.16-0.89,0.24-1.27,0.24c-0.63,0-1.05-0.18-1.28-0.55c-0.23-0.37-0.34-1.12-0.34-2.25c0-0.39,0.05-2.11,0.16-5.15
		c0.11-3.04,0.16-5.9,0.16-8.58c0-3.45-0.08-6-0.24-7.66c-0.16-1.66-0.42-2.92-0.77-3.8c1.47-0.05,3.01-0.13,4.61-0.24
		c1.61-0.11,2.5-0.17,2.68-0.17c2.56,0,4.58,0.7,6.06,2.09c1.47,1.4,2.21,3.29,2.21,5.68c0,2.1-0.47,3.9-1.4,5.39
		C516.26,29.77,514.88,30.93,513.06,31.75z M507.32,18.4c-0.09,2.18-0.16,4.27-0.2,6.27s-0.07,3.93-0.07,5.8
		c0.09,0,0.22,0.01,0.4,0.02c0.18,0.01,0.31,0.02,0.4,0.02c2.32,0,4.14-0.63,5.45-1.88c1.31-1.25,1.96-2.99,1.96-5.21
		c0-1.7-0.48-3.01-1.44-3.94c-0.96-0.93-2.32-1.39-4.07-1.39c-0.39,0-0.78,0.03-1.18,0.08C508.17,18.22,507.75,18.29,507.32,18.4z"
		/>
</g>
<g>
	<path class="st2" d="M12.45,3.29c0,0-4.28,5.41-3.62,9.76c0.65,4.35,3.73,8.14,6.24,8.27s4.44-1.04,5.12-2.09
		c0.36-0.57,2.28-2.17-1.84-6.91c0,0-3.33-3.16-4.06-4.14C13.65,7.36,12.04,4.44,12.45,3.29z"/>
	<path class="st2" d="M22.48,21.22c0,0,17.02,20.45,20.13,31.34c0,0-19.6-14.95-25.58-28.32C17.03,24.24,21.75,23.46,22.48,21.22z"
		/>
</g>
</svg>
