<?xml version="1.0" encoding="utf-8"?>
<!-- Generator: Adobe Illustrator 23.0.1, SVG Export Plug-In . SVG Version: 6.00 Build 0)  -->
<svg version="1.1" id="Layer_1" xmlns="http://www.w3.org/2000/svg" xmlns:xlink="http://www.w3.org/1999/xlink" x="0px" y="0px"
	 viewBox="0 0 252 32" style="enable-background:new 0 0 252 32;" xml:space="preserve">
<style type="text/css">
	.st0{fill-rule:evenodd;clip-rule:evenodd;fill:none;stroke:#FFFFFF;stroke-miterlimit:10;}
	.st1{fill:#FFFFFF;}
</style>
<g>
	<path class="st0" d="M12.3,18.4c1.1-4.1,5-7.1,9.7-7.1c3.6,0,6.7,1.8,8.4,4.4"/>
	<path class="st0" d="M17,12.5c0.5-2.2,2.6-3.8,5-3.8c2.4,0,4.4,1.6,5,3.8"/>
	<path class="st0" d="M22,8.9c0,0,1-4.3,4.3-5.5"/>
	<circle class="st0" cx="28.1" cy="2.8" r="2.3"/>
	<path class="st0" d="M12,25.6v4.5c0,0,11.1,2.3,19.9,0v-4.1"/>
	<circle class="st0" cx="29.1" cy="21" r="5.6"/>
	<circle class="st0" cx="14.9" cy="22.1" r="4.4"/>
	<circle class="st0" cx="29.1" cy="21" r="2.3"/>
	<circle class="st0" cx="14.3" cy="22.1" r="1.8"/>
</g>
<g>
	<path class="st1" d="M65.8,14c0,1.9-0.5,3.5-1.4,5c-0.8,1.3-1.9,2.2-3.1,2.7c0.3,0.5,0.9,1.4,1.9,2.9c0.5,0.7,1.3,1.6,2.4,2.7
		c-0.4,0.2-1.4,0.6-2.8,1.3c-1,0.5-2,1-2.9,1.5c-0.3-0.4-0.8-1.3-1.8-2.8c-0.4-0.8-1-2.1-1.8-3.9h0l-0.1,5.3h-7.7
		c-0.1-2.2-0.2-5.9-0.4-11c-0.1-3-0.3-7.2-0.6-12.5C50,5,52.3,4.8,54.3,4.8C61.9,4.8,65.8,7.9,65.8,14z M59.6,17.3
		c0-1-0.4-1.7-1.1-2.1c-0.5-0.3-1.2-0.4-2-0.4l-0.1,5.2c0.8,0,1.4-0.2,2-0.6C59.2,19,59.6,18.3,59.6,17.3z"/>
	<path class="st1" d="M84.8,16.5c0,3.6-0.8,6.6-2.5,9.1c-1.7,2.6-4,3.9-6.7,3.9c-2.8,0-5-1.3-6.8-3.9c-1.6-2.5-2.4-5.5-2.4-9.1
		c0-3.8,0.9-6.8,2.7-9c1.7-2.1,3.9-3.1,6.5-3.1c2.6,0,4.8,1,6.5,3.1C83.9,9.7,84.8,12.7,84.8,16.5z M78.3,19.2
		c0-2.8-0.9-4.2-2.6-4.2c-1.7,0-2.5,1.4-2.5,4.3c0,1.1,0.2,2.2,0.7,3.2c0.5,1.1,1.1,1.7,1.8,1.7c0.7,0,1.3-0.6,1.9-1.7
		C78,21.3,78.3,20.3,78.3,19.2z"/>
	<path class="st1" d="M103.4,13c0,1.8-0.4,3.4-1.2,4.7c-0.7,1.1-1.5,1.9-2.5,2.4c0.6,0.3,1.2,0.8,1.6,1.5c0.4,0.7,0.6,1.4,0.6,2.2
		c0,2-0.9,3.4-2.8,4.3c-1.5,0.7-3.4,1.1-5.7,1.1c-2,0-4.2-0.2-6.5-0.6c-0.1-2.4-0.2-6.2-0.4-11.6c-0.1-2.9-0.3-6.8-0.6-11.8
		c1.7-0.4,3.9-0.6,6.5-0.6C99.7,4.7,103.4,7.5,103.4,13z M97.4,23.1c0-1.2-0.8-1.8-2.3-1.8c-0.2,0-0.3,0-0.5,0l-0.1,3.7
		C96.5,25.2,97.4,24.5,97.4,23.1z M97.9,15.9c0-0.8-0.3-1.4-0.8-1.8c-0.5-0.4-1.2-0.6-2-0.5l-0.2,4.6C96.9,18.2,97.9,17.4,97.9,15.9
		z"/>
	<path class="st1" d="M122.6,16.5c0,3.6-0.8,6.6-2.5,9.1c-1.7,2.6-4,3.9-6.7,3.9c-2.8,0-5-1.3-6.8-3.9c-1.6-2.5-2.4-5.5-2.4-9.1
		c0-3.8,0.9-6.8,2.7-9c1.7-2.1,3.9-3.1,6.5-3.1c2.6,0,4.8,1,6.5,3.1C121.7,9.7,122.6,12.7,122.6,16.5z M116,19.2
		c0-2.8-0.9-4.2-2.6-4.2c-1.7,0-2.5,1.4-2.5,4.3c0,1.1,0.2,2.2,0.7,3.2c0.5,1.1,1.1,1.7,1.8,1.7c0.7,0,1.3-0.6,1.9-1.7
		C115.8,21.3,116,20.3,116,19.2z"/>
	<path class="st1" d="M137.8,5.3l-0.6,9.6c-0.3-0.1-1-0.1-2.1-0.3c-0.7,0-1.4-0.1-2.3-0.1l-0.2,4.9c0.9,0,2.4-0.1,4.3-0.2
		c-0.1,0.5-0.2,1.2-0.4,2.3c-0.1,0.6-0.2,1.4-0.3,2.2c-0.3-0.1-0.8-0.2-1.8-0.3c-0.7-0.1-1.4-0.1-2-0.1l-0.1,5.3h-7.6l-0.4-12
		c-0.1-2.7-0.3-6.6-0.6-11.5H137.8z"/>
	<path class="st1" d="M157.1,14c0,1.9-0.5,3.5-1.4,5c-0.8,1.3-1.9,2.2-3.1,2.7c0.3,0.5,0.9,1.4,1.9,2.9c0.5,0.7,1.3,1.6,2.4,2.7
		c-0.4,0.2-1.4,0.6-2.8,1.3c-1,0.5-2,1-2.9,1.5c-0.3-0.4-0.8-1.3-1.8-2.8c-0.4-0.8-1-2.1-1.8-3.9h0l-0.1,5.3h-7.7
		c-0.1-2.2-0.2-5.9-0.4-11c-0.1-3-0.3-7.2-0.6-12.5c2.5-0.3,4.8-0.4,6.8-0.4C153.3,4.8,157.1,7.9,157.1,14z M150.9,17.3
		c0-1-0.4-1.7-1.1-2.1c-0.5-0.3-1.2-0.4-2-0.4l-0.1,5.2c0.8,0,1.4-0.2,2-0.6C150.5,19,150.9,18.3,150.9,17.3z"/>
	<path class="st1" d="M167.3,5.3l-0.5,12.5c-0.1,2.7-0.2,6.3-0.4,11h-7.6l-0.9-23.4H167.3z"/>
	<path class="st1" d="M182.7,5.3l-0.6,9.7c-0.3-0.1-1.1-0.2-2.2-0.3c-0.8-0.1-1.6-0.1-2.5-0.2l-0.2,2.9c1,0,2.6,0,4.9-0.1
		c-0.1,0.4-0.3,1.1-0.5,2.1c-0.1,0.6-0.2,1.3-0.3,2.2c-0.3-0.1-0.9-0.2-2-0.3c-0.5,0-1.2,0-2.2,0l-0.1,3.4c0.7,0,1.9-0.1,3.8-0.2
		c0.3,0,0.9-0.2,1.7-0.4c-0.1,0.3-0.2,1.1-0.5,2.3c-0.1,0.6-0.3,1.4-0.5,2.3h-12.2l-0.4-12c-0.1-2.7-0.3-6.6-0.5-11.5H182.7z"/>
	<path class="st1" d="M200.6,5.3c-0.1,2.1-0.3,5.6-0.5,10.8c-0.1,3.8-0.2,8.1-0.3,13c-1.2-1-3-2.6-5.4-4.7c-1.1-0.8-2.6-2.1-4.7-3.7
		l-0.1,8.1h-4.4c-0.1-2.1-0.2-6-0.5-11.7c-0.2-4.6-0.5-8.6-0.7-11.7h6.8l5.1,5.4c0-1.2,0-2.2-0.1-2.9c0-0.6-0.1-1.4-0.2-2.5H200.6z"
		/>
	<path class="st1" d="M220.3,17.2c0,3.7-1,6.6-3,8.7c-2.1,2.2-5,3.3-8.9,3.3c-2.4,0-4.3-0.1-5.7-0.4l-0.4-11.3
		c-0.1-2.9-0.3-6.9-0.6-12c2-0.3,4-0.5,6.2-0.5c3.8,0,6.8,1,9,3C219.2,10,220.3,13.1,220.3,17.2z M214.8,19.1c0-1.5-0.4-2.6-1.3-3.3
		c-0.7-0.6-1.6-0.9-2.7-0.8l-0.2,9.6c1.2-0.1,2.1-0.5,2.8-1.3C214.3,22.3,214.8,20.9,214.8,19.1z"/>
	<path class="st1" d="M234.3,14.9c-0.7-0.2-1.2-0.3-1.5-0.3c-0.4,0-0.8,0.2-1.2,0.5c-0.4,0.4-0.6,0.9-0.6,1.5c0,0.5,0.4,1.4,1.2,2.8
		s1.2,2.7,1.2,3.8c0,1.7-0.6,3.1-1.7,4.2c-1.1,1-2.5,1.6-4.1,1.6c-1.5,0-2.6-0.1-3.3-0.4c-0.1-0.5-0.2-1.2-0.4-2.3
		c-0.1-0.6-0.3-1.3-0.5-2.3c1,0.3,1.7,0.4,2,0.4c1.4,0,2-0.6,2-1.7c0-0.8-0.3-1.6-0.8-2.2c-0.9-0.9-1.8-1.8-2.7-2.6
		c-1.7-1.7-2.6-3.7-2.6-6.1c0-2.5,0.8-4.3,2.4-5.6c1.4-1.1,3.3-1.6,5.7-1.6c1.3,0,2.8,0.2,4.5,0.7L234.3,14.9z"/>
</g>
</svg>
