<svg id="Layer_1" data-name="Layer 1" xmlns="http://www.w3.org/2000/svg" viewBox="0 0 251.48 32"><defs><style>.cls-1,.cls-2{fill:none;stroke:#fff;stroke-miterlimit:10;}.cls-1{fill-rule:evenodd;}.cls-3{fill:#fff;}</style></defs><title>robo friends logo2</title><path class="cls-1" d="M12,18a9.24,9.24,0,0,1,9-6.63,9.4,9.4,0,0,1,7.89,4.14"/><path class="cls-1" d="M16.4,12.48a4.82,4.82,0,0,1,9.29,0"/><path class="cls-1" d="M21.06,9.16s.93-4,4-5.12"/><circle class="cls-2" cx="26.79" cy="3.42" r="2.15"/><path class="cls-1" d="M11.74,24.77V29s10.38,2.19,18.61,0v-3.8"/><circle class="cls-2" cx="27.67" cy="20.49" r="5.24"/><circle class="cls-2" cx="14.42" cy="21.48" r="4.08"/><circle class="cls-2" cx="27.67" cy="20.49" r="2.13"/><circle class="cls-2" cx="13.89" cy="21.48" r="1.7"/><path class="cls-3" d="M65.76,14.05a9,9,0,0,1-1.4,5,7.16,7.16,0,0,1-3.11,2.72c.27.45.92,1.42,2,2.88a35.4,35.4,0,0,0,2.37,2.66c-.43.17-1.37.61-2.82,1.31-1,.52-2,1-2.87,1.52-.26-.36-.85-1.31-1.76-2.83-.41-.78-1-2.08-1.83-3.91h0l-.14,5.34H48.46c-.1-2.22-.24-5.87-.42-11q-.12-4.5-.56-12.47a59.7,59.7,0,0,1,6.83-.44Q65.76,4.83,65.76,14.05Zm-6.18,3.29a2.19,2.19,0,0,0-1.09-2.07,3.59,3.59,0,0,0-2-.4l-.09,5.22a3.64,3.64,0,0,0,2-.57A2.39,2.39,0,0,0,59.58,17.34Z"/><path class="cls-3" d="M84.8,16.49a16.09,16.09,0,0,1-2.48,9.11,7.72,7.72,0,0,1-13.42,0,16.19,16.19,0,0,1-2.43-9.08q0-5.76,2.65-9a8,8,0,0,1,6.55-3.08,7.93,7.93,0,0,1,6.47,3.1C83.91,9.67,84.8,12.67,84.8,16.49Zm-6.55,2.68c0-2.82-.85-4.24-2.56-4.24S73.2,16.36,73.2,19.2a7.72,7.72,0,0,0,.66,3.19c.49,1.11,1.09,1.67,1.81,1.67s1.31-.57,1.85-1.7A7.3,7.3,0,0,0,78.25,19.17Z"/><path class="cls-3" d="M103.42,13a9.24,9.24,0,0,1-1.17,4.75,5.82,5.82,0,0,1-2.48,2.38,3.63,3.63,0,0,1,1.55,1.51,4.45,4.45,0,0,1,.6,2.24,4.55,4.55,0,0,1-2.82,4.34,13.08,13.08,0,0,1-5.71,1.06,40.71,40.71,0,0,1-6.55-.56c-.06-2.37-.2-6.24-.4-11.6q-.19-4.3-.61-11.84a32,32,0,0,1,6.55-.56Q103.42,4.71,103.42,13Zm-6,10.12c0-1.18-.76-1.77-2.26-1.77a3.87,3.87,0,0,0-.48,0l-.08,3.74C96.49,25.2,97.43,24.53,97.43,23.11Zm.45-7.25a2.1,2.1,0,0,0-.85-1.8,3.18,3.18,0,0,0-2-.53l-.2,4.59C96.86,18.2,97.88,17.45,97.88,15.86Z"/><path class="cls-3" d="M122.56,16.49a16.09,16.09,0,0,1-2.47,9.11c-1.74,2.59-4,3.89-6.66,3.89a7.81,7.81,0,0,1-6.76-3.92,16.11,16.11,0,0,1-2.44-9.08q0-5.76,2.66-9a8,8,0,0,1,6.54-3.08,7.94,7.94,0,0,1,6.48,3.1C121.68,9.67,122.56,12.67,122.56,16.49ZM116,19.17c0-2.82-.86-4.24-2.56-4.24S111,16.36,111,19.2a7.88,7.88,0,0,0,.65,3.19c.49,1.11,1.09,1.67,1.81,1.67s1.32-.57,1.85-1.7A7.31,7.31,0,0,0,116,19.17Z"/><path class="cls-3" d="M152.81,5.27l-.56,9.6c-.34-.06-1.05-.15-2.14-.26q-1,0-2.31-.06l-.23,4.91a41.83,41.83,0,0,0,4.33-.23c-.1.46-.24,1.22-.43,2.26-.1.62-.21,1.37-.32,2.25-.26-.06-.84-.16-1.76-.28a17,17,0,0,0-2-.06l-.11,5.31h-7.64l-.42-12q-.11-4.12-.61-11.48Z"/><path class="cls-3" d="M172.09,14.05a9,9,0,0,1-1.4,5,7.2,7.2,0,0,1-3.1,2.72c.26.45.91,1.42,1.94,2.88a35.4,35.4,0,0,0,2.37,2.66c-.43.17-1.36.61-2.82,1.31-1,.52-2,1-2.87,1.52-.26-.36-.85-1.31-1.75-2.83-.42-.78-1-2.08-1.84-3.91h0l-.13,5.34h-7.67c-.1-2.22-.24-5.87-.42-11q-.12-4.5-.56-12.47a59.86,59.86,0,0,1,6.84-.44Q172.1,4.83,172.09,14.05Zm-6.18,3.29a2.19,2.19,0,0,0-1.09-2.07,3.57,3.57,0,0,0-2-.4l-.08,5.22a3.63,3.63,0,0,0,2-.57A2.39,2.39,0,0,0,165.91,17.34Z"/><path class="cls-3" d="M182.33,5.27l-.53,12.47c-.1,2.69-.22,6.34-.36,11h-7.63l-.93-23.44Z"/><path class="cls-3" d="M197.75,5.27l-.59,9.66c-.34-.06-1.06-.17-2.18-.32-.76-.08-1.59-.13-2.5-.15l-.21,2.91c1,0,2.63,0,4.89-.07-.1.37-.26,1.08-.48,2.1-.12.62-.24,1.34-.34,2.15a17.78,17.78,0,0,0-2-.27c-.49,0-1.22,0-2.18,0l-.13,3.4c.68,0,1.93-.07,3.75-.2a11.38,11.38,0,0,0,1.7-.36c-.07.31-.24,1.07-.5,2.27-.13.62-.28,1.4-.46,2.35H184.37l-.4-12q-.1-4.11-.53-11.48Z"/><path class="cls-3" d="M215.64,5.27c-.12,2.06-.3,5.64-.53,10.76q-.2,5.64-.34,13-1.78-1.57-5.43-4.69l-4.71-3.71-.13,8.09h-4.39q-.11-3.11-.5-11.69-.35-7-.69-11.75h6.83l5.06,5.37c0-1.23,0-2.19-.05-2.9s-.09-1.44-.17-2.47Z"/><path class="cls-3" d="M235.35,17.18q0,5.51-3,8.66t-8.86,3.28a30.19,30.19,0,0,1-5.67-.41l-.37-11.34q-.18-4.36-.64-12a39.55,39.55,0,0,1,6.16-.47q5.73,0,9,3Q235.36,11.06,235.35,17.18Zm-5.58,1.87a4.06,4.06,0,0,0-1.29-3.31,3.91,3.91,0,0,0-2.75-.81l-.19,9.57a4.15,4.15,0,0,0,2.84-1.27A5.72,5.72,0,0,0,229.77,19.05Z"/><path class="cls-3" d="M249.34,14.87a6.89,6.89,0,0,0-1.52-.26,1.7,1.7,0,0,0-1.18.49,2,2,0,0,0-.64,1.54,7.81,7.81,0,0,0,1.18,2.82,8,8,0,0,1,1.17,3.85,5.51,5.51,0,0,1-1.73,4.18,5.67,5.67,0,0,1-4.07,1.57,11.53,11.53,0,0,1-3.3-.35c-.08-.47-.22-1.23-.42-2.29-.12-.57-.3-1.33-.53-2.27a9.83,9.83,0,0,0,2,.41c1.35,0,2-.57,2-1.72a3.46,3.46,0,0,0-.81-2.25q-1.34-1.31-2.67-2.64a8.31,8.31,0,0,1-2.59-6.09,6.6,6.6,0,0,1,2.45-5.56,9.07,9.07,0,0,1,5.69-1.65,18.29,18.29,0,0,1,4.52.65Z"/></svg>