<svg xmlns="http://www.w3.org/2000/svg" xmlns:xlink="http://www.w3.org/1999/xlink" version="1.1" style="" xml:space="preserve" width="48" height="40"><rect id="backgroundrect" width="100%" height="100%" x="0" y="0" fill="none" stroke="none"/>
<style type="text/css">
	.st0{fill:#66FCF1;}
</style>


<g class="currentLayer" style=""><title>Layer 1</title><path class="st0" d="M36.8,36V14.3c0-2.2-1.8-4-4-4H22c-2.2,0-4-1.8-4-4V4c0-2.2,1.8-4,4-4l22,0c2.2,0,4,1.8,4,4v32c0,2.2-1.8,4-4,4  h-3.2C38.6,40,36.8,38.2,36.8,36z" id="svg_1"/><path class="st0" d="M11.2,4v21.7c0,2.2,1.8,4,4,4H26c2.2,0,4,1.8,4,4V36c0,2.2-1.8,4-4,4L4,40c-2.2,0-4-1.8-4-4L0,4  c0-2.2,1.8-4,4-4l3.2,0C9.4,0,11.2,1.8,11.2,4z" id="svg_2"/></g></svg>