<svg width="252" height="32" viewBox="0 0 252 32" fill="none" xmlns="http://www.w3.org/2000/svg">
<path fill-rule="evenodd" clip-rule="evenodd" d="M28.3327 9.56693C30.9745 9.56693 33.1161 7.4253 33.1161 4.78346C33.1161 2.14163 30.9745 0 28.3327 0C25.6908 0 23.5492 2.14163 23.5492 4.78346C23.5492 6.25369 24.2125 7.569 25.2562 8.44647L19.9862 19.4457C19.3709 19.2434 18.7135 19.134 18.0305 19.134C16.5534 19.134 15.1958 19.646 14.1256 20.5023L6.95011 14.1985C7.21153 13.693 7.35917 13.1191 7.35917 12.5107C7.35917 10.4785 5.71177 8.83111 3.67959 8.83111C1.64741 8.83111 0 10.4785 0 12.5107C0 14.5429 1.64741 16.1903 3.67959 16.1903C4.29786 16.1903 4.88051 16.0378 5.39199 15.7684L12.6705 22.1627C12.1022 23.1048 11.7752 24.2088 11.7752 25.3893C11.7752 28.844 14.5758 31.6446 18.0305 31.6446C21.4853 31.6446 24.2858 28.844 24.2858 25.3893C24.2858 23.4093 23.3659 21.6441 21.9301 20.4979L27.2287 9.43891C27.5831 9.52263 27.9527 9.56693 28.3327 9.56693ZM18.0306 28.7011C19.8596 28.7011 21.3423 27.2184 21.3423 25.3894C21.3423 23.5605 19.8596 22.0778 18.0306 22.0778C16.2017 22.0778 14.719 23.5605 14.719 25.3894C14.719 27.2184 16.2017 28.7011 18.0306 28.7011ZM5.15218 12.5109C5.15218 13.3238 4.49322 13.9828 3.68035 13.9828C2.86748 13.9828 2.20852 13.3238 2.20852 12.5109C2.20852 11.698 2.86748 11.0391 3.68035 11.0391C4.49322 11.0391 5.15218 11.698 5.15218 12.5109ZM28.334 6.62343C29.3501 6.62343 30.1738 5.79972 30.1738 4.78363C30.1738 3.76754 29.3501 2.94384 28.334 2.94384C27.3179 2.94384 26.4942 3.76754 26.4942 4.78363C26.4942 5.79972 27.3179 6.62343 28.334 6.62343Z" fill="white"/>
<path d="M42.6025 23.08C42.6025 23.944 42.7625 29.16 49.6745 29.16C54.4745 29.16 55.8825 26.248 55.8825 23.688C55.8825 15.752 44.8745 18.6 44.8745 12.232C44.8745 9.736 46.6665 8.04 49.3865 8.04C52.2665 8.04 53.6425 9.96 53.6425 12.36V13H55.5625V12.36C55.5625 10.792 54.6985 6.44 49.3865 6.44C43.8825 6.44 42.9545 10.6 42.9545 12.232C42.9545 20.264 53.9625 17.544 53.9625 23.688C53.9625 24.968 53.5145 27.56 49.6745 27.56C45.8345 27.56 44.5225 25.448 44.5225 23.08V22.44H42.6025V23.08ZM63.5675 29H65.4875V11.112L71.5035 29H73.4235L79.5035 11.08V29H81.4235V6.6H79.1195L72.4635 26.12L65.8715 6.6H63.5675V29ZM88.1437 29H90.0317L91.2477 24.52H100.208L101.424 29H103.312L96.9117 6.6H94.5437L88.1437 29ZM95.7277 8.744L99.7917 22.92H91.6317L95.7277 8.744ZM110.686 29H112.606V21.32C115.806 21.32 116.126 21.32 116.414 21.288L120.574 29H122.622L118.27 20.968C121.982 19.912 122.622 16.648 122.622 13.96C122.622 10.696 121.694 6.6 115.486 6.6H110.686V29ZM112.606 8.2H115.486C120.062 8.2 120.702 10.76 120.702 13.96C120.702 17.16 120.062 19.56 115.486 19.688H112.606V8.2ZM129.044 8.2H133.844V29H135.764V8.2H140.596V6.6H129.044V8.2ZM158.442 29H164.394C170.602 29 171.53 25.672 171.53 22.92C171.53 20.872 170.666 18.504 167.786 17.448C169.482 16.296 170.25 14.376 170.25 12.616C170.25 9.896 169.13 6.6 164.394 6.6H158.442V29ZM160.362 18.44H164.074C168.65 18.44 169.61 20.52 169.61 22.92C169.61 25.32 168.97 27.272 164.394 27.4H160.362V18.44ZM160.362 8.2H164.394C168.01 8.2 168.33 10.856 168.33 12.616C168.33 14.376 167.69 16.84 164.074 16.84H160.362V8.2ZM179.205 29H181.125V21.32C184.325 21.32 184.645 21.32 184.933 21.288L189.093 29H191.141L186.789 20.968C190.501 19.912 191.141 16.648 191.141 13.96C191.141 10.696 190.213 6.6 184.005 6.6H179.205V29ZM181.125 8.2H184.005C188.581 8.2 189.221 10.76 189.221 13.96C189.221 17.16 188.581 19.56 184.005 19.688H181.125V8.2ZM197.875 29H199.763L200.979 24.52H209.939L211.155 29H213.043L206.643 6.6H204.275L197.875 29ZM205.459 8.744L209.523 22.92H201.363L205.459 8.744ZM220.417 29H222.337V6.6H220.417V29ZM230.024 29H231.944V10.632L241.288 29H243.304V6.6H241.384V25L232.04 6.6H230.024V29Z" fill="white"/>
</svg>
